<svg width="28" height="28" viewBox="0 0 28 28" fill="none" xmlns="http://www.w3.org/2000/svg">
<path d="M27.3104 12.3368L15.6533 0.665308C15.4316 0.452792 15.1701 0.286204 14.8839 0.175104C14.3163 -0.0583681 13.6797 -0.0583681 13.1121 0.175104C12.8259 0.286204 12.5644 0.452792 12.3427 0.665308L0.685649 12.3368C0.468271 12.5545 0.295839 12.8129 0.178195 13.0972C0.0605512 13.3816 0 13.6864 0 13.9942C0 14.6158 0.246635 15.212 0.685649 15.6515C1.12466 16.0911 1.72009 16.338 2.34095 16.338C2.96181 16.338 3.55724 16.0911 3.99625 15.6515L11.6666 7.94833V25.6657C11.6666 26.2848 11.9122 26.8785 12.3495 27.3163C12.7867 27.7541 13.3797 28 13.998 28C14.6163 28 15.2093 27.7541 15.6466 27.3163C16.0838 26.8785 16.3294 26.2848 16.3294 25.6657V7.94833L23.9998 15.6515C24.2165 15.8703 24.4744 16.044 24.7585 16.1625C25.0426 16.281 25.3473 16.342 25.6551 16.342C25.9628 16.342 26.2676 16.281 26.5517 16.1625C26.8358 16.044 27.0936 15.8703 27.3104 15.6515C27.5289 15.4345 27.7023 15.1764 27.8207 14.8919C27.9391 14.6074 28 14.3023 28 13.9942C28 13.686 27.9391 13.3809 27.8207 13.0965C27.7023 12.812 27.5289 12.5538 27.3104 12.3368Z" fill="white"/>
</svg>
