<svg width="165" height="60" viewBox="0 0 165 60" fill="none" xmlns="http://www.w3.org/2000/svg">
<path d="M45.3362 18.9214C45.0481 19.198 44.8644 19.7823 44.5185 20.1283C43.8975 20.7494 42.9776 21.1132 42.4852 21.8516C41.9718 22.6213 42.1274 23.4122 42.3083 24.2534C42.5734 23.9128 44.4106 21.5775 44.6113 21.5263C44.0285 22.5431 43.346 23.516 42.7267 24.5133C43.1285 24.4647 43.5387 24.3998 43.9196 24.2605C44.6526 23.9923 45.2183 23.4344 45.5353 22.7333C46.0805 21.5276 45.8023 20.1012 45.3362 18.9214Z" fill="#82B634"/>
<path d="M14.5451 18.3093C14.369 19.8155 13.7994 21.2682 14.351 22.7786C14.806 24.0247 15.7189 24.5092 16.8688 25.0411C16.5627 24.3238 16.2785 23.5977 15.9709 22.8809C15.7448 22.3543 15.4588 21.8151 15.2997 21.2662L15.3266 21.2405L15.4272 21.3656C16.0126 22.1827 16.5031 23.1545 16.9643 24.0464C17.0732 24.257 17.25 24.8106 17.4273 24.9376C17.4947 24.8971 17.5245 24.8516 17.5542 24.7798C17.7373 24.3362 17.794 23.7992 17.7552 23.3253C17.6063 21.5099 16.38 21.0492 15.3602 19.7986C14.9956 19.3515 14.7793 18.8287 14.5451 18.3093Z" fill="#82B634"/>
<path d="M11.0268 23.8643L10.9943 23.911C11.0646 25.147 11.4391 26.5575 12.1453 27.5878C13.6557 29.7913 16.256 29.7732 18.6361 30.2285C17.4505 28.8501 15.8579 27.5392 14.1591 26.8626L13.9981 26.7995L14.0059 26.8015L13.999 26.7442C15.9047 27.1968 17.6203 28.2984 19.0256 29.6154C18.7761 28.8495 18.5576 27.9614 18.1403 27.2695C16.7469 24.9591 14.1123 25.9505 12.0902 24.7743C11.6754 24.5331 11.3481 24.2141 11.0268 23.8643Z" fill="#82B634"/>
<path d="M48.8463 23.8501C48.7392 23.9331 48.6491 24.0699 48.5539 24.1691C48.3019 24.4321 48.0194 24.6918 47.7062 24.8831C46.1131 25.856 44.2294 25.4283 42.7944 26.2952C41.6174 27.0061 41.2158 28.0962 40.9086 29.3554C42.1475 28.2275 43.3897 27.7779 44.8905 27.1517C45.2162 27.0158 45.674 26.7514 46.0209 26.7179L45.8759 26.8171C44.2011 27.7987 42.6872 28.5097 41.2908 29.9183C41.8333 29.9981 42.3789 30.0377 42.9274 30.037C44.5988 30.0287 46.2106 29.5861 47.4031 28.3739C48.5967 27.1605 48.8742 25.473 48.8463 23.8501Z" fill="#82B634"/>
<path d="M37.8476 10.4228C37.8053 10.4785 37.8177 10.4528 37.796 10.5185C37.6497 10.9625 37.4831 11.4257 37.2264 11.8199C36.9993 12.1687 36.6998 12.4542 36.3901 12.731C34.5674 14.3596 32.7024 14.4666 31.4952 16.8985C30.8354 18.2276 30.8541 19.7491 31.3338 21.1304C32.2421 19.3763 33.6541 17.9926 35.0727 16.6359C35.4183 16.3053 35.7564 15.9292 36.1279 15.629L36.1361 15.6716C35.7499 16.1929 35.3153 16.682 34.9152 17.1935C33.8168 18.5973 32.7114 20.1745 32.0397 21.8271C34.3293 21.0488 36.3216 20.3338 37.5678 18.1176C38.8857 15.7741 38.5764 12.8975 37.8476 10.4228Z" fill="#82B634"/>
<path d="M22.0808 10.2956C21.9669 10.398 21.9101 10.6008 21.8611 10.7432C21.1339 12.8554 20.8032 15.6435 21.8351 17.6914C23.0479 20.0985 25.3566 21.0341 27.7894 21.8501C26.9156 19.6142 25.3957 17.7116 24.0349 15.7576C23.9371 15.5992 23.8466 15.4366 23.7547 15.2749C25.4022 17.2312 27.3849 18.9126 28.5181 21.244C29.3066 18.9147 28.6646 16.3929 26.7095 14.8346C25.3601 13.7593 23.2377 12.9619 22.4282 11.3632C22.2565 11.0239 22.1707 10.6623 22.0808 10.2956Z" fill="#82B634"/>
<path d="M30.0215 2.57572C29.98 2.64203 29.9887 2.61516 29.9731 2.68526C29.7396 3.72793 29.3651 4.62582 28.7987 5.5334C28.1206 6.61995 27.3054 7.55318 27.0193 8.83357C26.7073 10.2299 26.7818 11.8901 27.5871 13.12C28.0531 13.8316 28.6646 14.2377 29.4968 14.4187C29.5025 13.2772 29.6257 12.1338 29.6601 10.9921C29.6851 10.1654 29.5952 9.26357 29.7236 8.44819L29.739 8.47111C29.883 9.02297 29.8857 9.70623 29.9263 10.2766C30.0272 11.6936 30.0953 13.0894 30.1048 14.5092C30.2063 14.4877 30.3071 14.4639 30.4075 14.4379C31.2522 14.2171 31.931 13.598 32.3564 12.8568C32.7798 12.1189 32.9644 11.2529 32.9987 10.4119C33.0655 8.77474 32.74 7.70338 31.8395 6.32167C31.5598 5.89241 31.2482 5.47752 30.9941 5.03298C30.5528 4.26131 30.2554 3.42817 30.0215 2.57572Z" fill="#82B634"/>
<path d="M41.5636 2.36692C38.2358 0.990142 34.5699 0.141557 30.9573 0.0431157C31.5363 1.83437 32.718 3.40056 33.9354 4.82829C34.4454 5.42641 35.0138 5.99578 35.3817 6.69588C35.6205 7.15012 35.7123 7.62401 35.6954 8.13429C36.4309 7.03952 36.6859 6.02668 36.6584 4.72311C38.1605 7.11988 39.2884 8.98345 39.9873 11.7644C40.4582 10.7575 40.4671 9.68717 40.3122 8.6108C40.33 8.59412 40.3184 8.60711 40.3343 8.5638C40.2041 8.25895 40.1464 8.30036 39.9088 8.1089C39.6438 7.89517 39.5299 7.68062 39.4994 7.34627C39.6294 7.42507 39.7539 7.51061 39.8793 7.59631C40.0326 7.60067 40.2138 7.61226 40.3576 7.54874C40.4641 7.50174 40.4941 7.44808 40.541 7.34775C40.5311 7.02136 40.3057 6.81322 40.1616 6.53877C40.1011 6.42373 40.1781 6.15125 40.2141 6.02553C40.2348 5.95305 40.2443 5.84508 40.3123 5.80728C40.3155 5.84623 40.3192 5.88512 40.3232 5.92396C40.3402 6.08625 40.3486 6.2086 40.4858 6.31773C40.6046 6.35331 40.6928 6.38815 40.8175 6.35372L40.8575 6.27566C40.8353 6.18494 40.8171 6.11476 40.8282 6.0206C40.8618 5.73415 41.333 5.23027 41.5687 5.06889C41.8184 4.89789 42.4041 5.17439 42.6734 5.24588C42.8629 4.98376 43.2113 4.84719 43.3626 4.53066C43.5149 4.21208 42.8219 3.88529 42.7423 3.63286L42.7956 3.57969L42.8451 3.63803L42.8799 3.59703L42.8627 3.50056C42.7144 3.43285 42.6176 3.28823 42.4625 3.23868C42.1951 3.1533 42.0264 2.93218 41.7701 2.83612C41.132 2.59692 40.6985 2.70448 40.15 2.1896L40.0865 2.20176L40.0228 2.10102C39.7957 2.09872 39.7062 1.92492 39.5002 1.86009C39.2645 1.78589 39.0141 1.7826 38.7816 1.69394L38.8085 1.56394L38.7596 1.5153L38.6785 1.52154L38.6406 1.62935L38.5575 1.55778L38.5753 1.45499C38.6353 1.39155 38.6317 1.39771 38.7158 1.41234C38.9017 1.44463 40.4293 1.98787 40.681 2.0891C40.8804 2.16922 41.2605 2.39379 41.4676 2.40201C41.5017 2.40333 41.5316 2.37859 41.5636 2.36692Z" fill="#82B634"/>
<path d="M19.159 16.5869C18.8963 16.8994 18.5602 18.507 18.4868 18.96C18.0021 21.9531 18.245 25.2965 20.1133 27.8139C21.4128 29.5649 23.2834 30.4106 25.3237 31.0257C25.9366 31.2104 26.5573 31.3969 27.1915 31.4952C26.2392 28.6795 23.9578 26.4386 21.7006 24.5741L20.9867 24.0115C21.6984 24.4023 22.3477 24.8877 23.0032 25.3624C25.2066 26.9576 26.3514 28.0772 27.7393 30.4767C28.1122 29.3958 28.2557 28.1678 28.0655 27.0382C27.4826 23.5776 24.3612 22.6757 21.8408 20.9015C20.2154 19.7574 19.4798 18.5122 19.159 16.5869Z" fill="#104D24"/>
<path d="M40.4631 15.7623C40.4418 15.9407 40.4763 16.1378 40.4849 16.3182C40.5096 16.8284 40.4985 17.2845 40.3653 17.7799C39.3331 21.6204 34.3083 22.0079 32.4162 25.2333C31.4223 26.9276 31.5749 28.7839 32.0645 30.612C32.9701 28.3745 34.9191 26.8025 36.8338 25.4191C37.4687 24.9603 38.103 24.4997 38.7639 24.0779C38.4984 24.3077 38.231 24.5354 37.9618 24.7609C35.7247 26.6621 33.6146 28.7217 32.6308 31.5444C34.0511 31.2369 35.4766 30.8001 36.8 30.2015C38.8847 29.2583 40.4246 27.55 41.2173 25.4241C41.3132 25.1599 41.3984 24.8923 41.4731 24.6215C41.5479 24.3507 41.6118 24.0775 41.6649 23.8018C41.718 23.526 41.7601 23.2487 41.7913 22.9697C41.8224 22.6907 41.8425 22.411 41.8516 22.1305C41.9066 20.0916 41.325 17.6136 40.4631 15.7623Z" fill="#104D24"/>
<path d="M15.8674 31.0743C14.8936 30.9553 13.82 31.1397 12.8543 31.2776C10.7404 31.5795 9.20093 31.5795 7.11736 31.048C8.22448 34.0536 10.623 37.3157 13.5794 38.741C16.942 40.3623 19.6728 39.5141 22.9766 38.4038C22.6254 38.0858 22.2436 37.8027 21.8682 37.5133C20.1999 36.1045 17.281 35.165 15.1254 34.8199C14.4668 34.7144 13.7622 34.7385 13.1155 34.6062L13.0352 34.5891C13.555 34.532 14.095 34.5378 14.6177 34.5368C16.8548 34.5326 18.9739 34.8925 20.9682 35.9522C21.6605 36.3201 22.2957 36.7873 22.9313 37.2416C22.5087 35.9368 21.8114 34.5986 20.9092 33.5552C19.6151 32.0584 17.843 31.2298 15.8674 31.0743Z" fill="#104D24"/>
<path d="M52.5993 30.7561C48.8138 32.2353 44.7604 29.9944 41.0198 31.7818C40.9019 31.837 40.7865 31.8968 40.6734 31.9611C40.5603 32.0254 40.45 32.094 40.3424 32.1669C40.2348 32.2397 40.1303 32.3167 40.0289 32.3977C39.9274 32.4787 39.8293 32.5636 39.7346 32.6522C38.5357 33.7721 37.2268 35.9663 36.6824 37.5142C38.1919 36.3434 40.1014 35.4303 41.9624 34.9837C43.0928 34.7125 44.2507 34.567 45.3976 34.3817C45.6368 34.343 46.8739 34.0459 46.9478 34.0559C46.959 34.0574 46.9697 34.0618 46.9806 34.0646L46.9803 34.0637L46.8929 34.1176L46.9358 34.1449L46.8795 34.1233C46.5141 34.2805 46.1099 34.3747 45.7224 34.4628C42.7093 35.2407 39.2598 36.2459 36.9626 38.4462C37.4126 38.6527 37.91 38.7995 38.3821 38.9499C41.163 39.8359 43.7437 40.0794 46.4334 38.7066C49.5858 37.0974 51.5538 34.0108 52.5993 30.7561Z" fill="#104D24"/>
<path d="M29.8596 15.8713C29.7346 16.2731 29.7235 16.7646 29.6844 17.1831C29.5671 18.4425 29.5181 19.709 29.4554 20.9722L28.9733 30.3777C28.8363 32.7336 28.4767 35.051 28.2172 37.3922C27.7406 37.0259 27.2903 36.6164 26.8345 36.2248C24.0212 33.8079 21.3028 30.9717 19.2983 27.8568C19.6199 29.0362 20.0419 30.3116 20.6273 31.3886C21.0672 32.198 21.5929 32.9612 22.0987 33.7309C22.558 34.4298 23.0002 35.1394 23.4698 35.8317C24.4261 37.2412 26.2662 39.743 26.6304 41.3432C26.8836 42.4557 26.7452 43.5727 26.5626 44.6832C26.5275 44.8935 26.4898 45.1033 26.4494 45.3126C26.409 45.5219 26.366 45.7307 26.3203 45.939C26.2746 46.1472 26.2263 46.3549 26.1753 46.5619C26.1244 46.769 26.0708 46.9754 26.0147 47.1811C25.9585 47.3869 25.8997 47.5919 25.8383 47.7961C25.777 48.0004 25.713 48.2039 25.6465 48.4067C25.58 48.6094 25.5108 48.8112 25.4392 49.0122C25.3675 49.2132 25.2933 49.4133 25.2166 49.6125C25.1399 49.8116 25.0606 50.0098 24.9789 50.207C24.8971 50.4042 24.8129 50.6004 24.7261 50.7955C24.6394 50.9906 24.5502 51.1846 24.4585 51.3775C24.3669 51.5704 24.2729 51.7622 24.1763 51.9528C24.0798 52.1434 23.9809 52.3327 23.8796 52.5208C23.7783 52.709 23.6746 52.8959 23.5686 53.0815C23.4625 53.2671 23.3541 53.4513 23.2434 53.6342C23.1326 53.8171 23.0196 53.9986 22.9043 54.1787C21.1934 54.3588 19.486 54.4968 17.7848 54.7636C12.8094 55.5439 7.85786 57.0113 3.36522 59.2762C2.8914 59.515 2.40983 59.7357 1.94957 60C3.61333 59.5034 5.34042 59.1373 7.04021 58.7826C14.5541 57.2146 22.2282 56.6454 29.8973 56.6107C31.075 56.6073 32.2524 56.6218 33.4297 56.6541C34.6069 56.6864 35.7833 56.7365 36.959 56.8044C38.1347 56.8722 39.3091 56.9578 40.4821 57.0611C41.6552 57.1645 42.8263 57.2856 43.9956 57.4243C45.1648 57.5631 46.3317 57.7195 47.4961 57.8936C48.6605 58.0677 49.822 58.2593 50.9804 58.4684C52.1389 58.6776 53.2939 58.9042 54.4454 59.1482C55.5968 59.3923 56.7442 59.6538 57.8876 59.9325C57.0697 59.4948 56.1946 59.1366 55.3453 58.7618C54.7945 58.5171 54.2397 58.2815 53.6809 58.0552C53.122 57.8289 52.5595 57.6119 51.9933 57.4041C51.4271 57.1964 50.8576 56.9981 50.2847 56.8092C49.7118 56.6203 49.1359 56.4409 48.5569 56.2711C47.9778 56.1012 47.3961 55.9411 46.8116 55.7905C46.2272 55.6399 45.6404 55.499 45.0512 55.3678C44.462 55.2367 43.8707 55.1153 43.2773 55.0037C42.684 54.8921 42.0889 54.7904 41.4921 54.6985C40.1141 54.4832 38.7226 54.3876 37.3387 54.221C36.6199 53.5557 35.9852 52.7277 35.527 51.8668C34.6249 50.1723 34.1479 48.1423 33.7652 46.279C33.4103 44.5506 33.0561 42.7134 33.4286 40.9619C33.6649 39.8508 34.5943 38.558 35.2086 37.5955C36.5465 35.4988 38.0611 33.4899 39.3147 31.3452C39.9823 30.2031 40.4819 28.9554 40.8834 27.6996C40.6154 28.0913 40.3651 28.4943 40.081 28.8751C38.3792 31.1562 36.3062 33.3009 34.1888 35.2133C33.4867 35.8474 32.736 36.4272 32.0231 37.0499C31.3339 34.9053 30.8764 32.2897 30.6939 30.0508C30.6377 29.3601 30.6596 28.6645 30.6041 27.9753C30.5411 27.1926 30.4455 26.4128 30.3869 25.6293C30.2598 23.9307 30.1794 22.2218 30.0879 20.5206C30.0046 18.9719 29.9904 17.4173 29.8596 15.8713Z" fill="#104D24"/>
<path d="M41.5636 2.36692C41.5316 2.37859 41.5017 2.40333 41.4676 2.40201C41.2605 2.39379 40.8804 2.16922 40.681 2.0891C40.4293 1.98787 38.9017 1.44463 38.7158 1.41234C38.6317 1.39771 38.6353 1.39155 38.5753 1.45499L38.5575 1.55778L38.6406 1.62935L38.6785 1.52154L38.7596 1.5153L38.8085 1.56394L38.7816 1.69394C39.0141 1.7826 39.2645 1.78589 39.5002 1.86009C39.7062 1.92492 39.7957 2.09872 40.0228 2.10102L40.0865 2.20176L40.15 2.1896C40.6985 2.70448 41.132 2.59692 41.7701 2.83612C42.0264 2.93218 42.1951 3.1533 42.4625 3.23868C42.6176 3.28823 42.7144 3.43285 42.8627 3.50056L42.8799 3.59703L42.8451 3.63803L42.7956 3.57969L42.7423 3.63286C42.8219 3.88529 43.5149 4.21208 43.3626 4.53066C43.2113 4.84719 42.8629 4.98376 42.6734 5.24588C42.4041 5.17439 41.8184 4.89789 41.5687 5.06889C41.333 5.23027 40.8618 5.73415 40.8282 6.0206C40.8171 6.11476 40.8353 6.18494 40.8575 6.27566L40.8175 6.35372C40.6928 6.38815 40.6046 6.35331 40.4858 6.31773C40.3486 6.2086 40.3402 6.08625 40.3232 5.92396C40.3192 5.88512 40.3155 5.84623 40.3123 5.80728C40.2443 5.84508 40.2348 5.95305 40.2141 6.02553C40.1781 6.15125 40.1011 6.42373 40.1616 6.53877C40.3057 6.81322 40.5311 7.02136 40.541 7.34775C40.4941 7.44808 40.4641 7.50174 40.3576 7.54874C40.2138 7.61226 40.0326 7.60067 39.8793 7.59631C39.7539 7.51061 39.6294 7.42507 39.4994 7.34627C39.5299 7.68062 39.6438 7.89517 39.9088 8.1089C40.1464 8.30036 40.2041 8.25895 40.3343 8.5638C40.3184 8.60711 40.33 8.59412 40.3122 8.6108C40.6934 9.0307 40.9907 9.57467 41.2744 10.0643C42.7148 12.5498 43.1937 14.6637 43.4839 17.4902C44.3736 16.492 44.8396 15.3329 44.9582 14.0119C46.5704 16.3859 47.793 18.5653 47.7145 21.5309C48.3772 20.4638 48.6189 19.2095 48.7108 17.9772C49.1164 18.7992 49.5023 19.6461 49.7988 20.5132C50.6469 22.9929 50.9239 25.8602 49.7124 28.272C50.3586 28.2249 50.9852 28.1698 51.6084 27.9835C52.981 27.5729 53.7227 26.7784 54.3821 25.5598C54.4364 27.1677 54.1099 28.1579 53.1563 29.4423C54.0553 29.0484 54.7411 28.6671 55.3827 27.919C55.1246 31.2956 54.4101 33.9989 52.5165 36.8574C51.026 39.1075 48.5228 40.861 46.0123 41.8384C45.0045 42.2308 43.9755 42.4978 42.9175 42.7187C43.6042 42.7512 44.3493 42.6373 45.0304 42.5473C47.7252 42.1912 50.4646 41.3514 52.4686 39.4531C52.8922 39.0518 53.2484 38.601 53.6042 38.1422C53.0589 39.4974 52.3831 40.6937 51.3822 41.7727C50.7947 42.4059 50.1853 43.0239 49.4925 43.546C47.8053 44.8174 45.5875 45.5868 43.4791 45.7389C42.63 45.8001 41.7884 45.7044 40.9437 45.7456L40.8852 45.7487C43.1854 46.1733 45.5249 46.254 47.8166 45.724C49.6237 45.3062 51.4444 44.5187 52.5997 43.0226C52.9106 42.6198 53.1154 42.1741 53.3865 41.7498L53.4295 41.6832C53.0377 43.5293 51.8009 45.2884 50.3079 46.4318C48.0178 48.1855 44.9615 48.8763 42.1033 48.5223C42.3213 48.6009 42.5392 48.6812 42.7601 48.7517C42.8415 48.7775 42.9232 48.8023 43.0052 48.8262C43.0872 48.85 43.1694 48.8728 43.252 48.8947C43.3346 48.9166 43.4174 48.9375 43.5004 48.9574C43.5835 48.9773 43.6668 48.9962 43.7503 49.0141C43.8338 49.0321 43.9175 49.049 44.0015 49.0649C44.0854 49.0808 44.1695 49.0958 44.2538 49.1097C44.3381 49.1237 44.4226 49.1366 44.5072 49.1485C44.5918 49.1604 44.6765 49.1713 44.7614 49.1812C44.8463 49.1912 44.9313 49.2001 45.0164 49.2079C45.1015 49.2158 45.1867 49.2227 45.272 49.2286C45.3572 49.2344 45.4425 49.2393 45.5279 49.2431C45.6133 49.2469 45.6987 49.2498 45.7842 49.2516C45.8696 49.2533 45.9551 49.2541 46.0406 49.2539C46.126 49.2537 46.2115 49.2524 46.2969 49.2501C46.3824 49.2478 46.4678 49.2446 46.5531 49.2403C46.6385 49.236 46.7238 49.2307 46.8091 49.2244C46.8943 49.218 46.9794 49.2107 47.0645 49.2023C47.1495 49.1939 47.2345 49.1846 47.3193 49.1743C47.4041 49.1638 47.4888 49.1524 47.5733 49.1401C47.6579 49.1277 47.7423 49.1143 47.8265 49.0999C47.9107 49.0855 47.9947 49.0701 48.0786 49.0537C48.1624 49.0373 48.246 49.0199 48.3295 49.0015C48.4129 48.9831 48.4961 48.9638 48.579 48.9434C48.662 48.923 48.7447 48.9017 48.8271 48.8793C48.9095 48.857 48.9916 48.8337 49.0735 48.8094C49.1554 48.7851 49.2369 48.7599 49.3182 48.7336C49.3994 48.7075 49.4803 48.6803 49.5609 48.6521C49.6414 48.624 49.7217 48.5949 49.8016 48.5648C49.8814 48.5347 49.9609 48.5037 50.04 48.4718C50.1191 48.4398 50.1978 48.4069 50.2761 48.3731C50.3544 48.3393 50.4323 48.3045 50.5098 48.2689C50.5872 48.2332 50.6642 48.1966 50.7408 48.1591C50.2478 48.5718 49.7552 48.9876 49.216 49.3416C47.4148 50.524 45.2973 51.0866 43.1544 51.182C42.2931 51.2204 41.4304 51.1445 40.571 51.2109C41.4469 51.3454 42.347 51.3656 43.2289 51.4955C45.2075 51.7871 47.0351 52.3953 48.8935 53.1028C49.9428 52.3214 50.9158 51.3468 51.8079 50.3945C54.892 47.102 56.7206 44.0677 58.3134 39.8562C60.3127 34.5704 60.491 28.0355 59.0791 22.5873C58.6007 20.7414 57.8881 18.9249 57.086 17.193C56.6577 16.2681 56.1378 15.3946 55.605 14.5257C53.1694 10.5531 49.9747 7.35909 46.0759 4.77759C44.6687 3.84585 43.1552 2.95322 41.5636 2.36692Z" fill="url(#paint0_linear_48_95)"/>
<path d="M28.9648 0.00170152C28.6176 -0.00700865 28.2632 0.0196153 27.9164 0.0385969C27.6763 0.0539356 27.4364 0.0721764 27.1968 0.0933219C26.9571 0.114467 26.7178 0.138517 26.4788 0.165469C26.2397 0.192476 26.0011 0.222359 25.7627 0.255118C25.5245 0.287877 25.2867 0.32354 25.0492 0.362106C24.8118 0.400617 24.5749 0.442031 24.3385 0.486348C24.1022 0.530666 23.8664 0.577833 23.6312 0.627848C23.396 0.677863 23.1615 0.730754 22.9276 0.786521C22.6937 0.842233 22.4605 0.900794 22.2282 0.962203C21.9957 1.02356 21.7641 1.08776 21.5333 1.15481C21.3025 1.22181 21.0725 1.29163 20.8434 1.36427C20.6143 1.43685 20.3862 1.51223 20.159 1.5904C19.9318 1.66858 19.7056 1.74949 19.4804 1.83314C19.2553 1.91679 19.0312 2.00315 18.8081 2.09222C18.5851 2.1813 18.3632 2.27308 18.1424 2.36758C17.9217 2.46208 17.7022 2.55923 17.4838 2.65904C17.2656 2.75886 17.0485 2.86132 16.8327 2.96645C16.617 3.07152 16.4025 3.17922 16.1895 3.28954C15.9764 3.39982 15.7647 3.5127 15.5544 3.62817C15.3442 3.7436 15.1354 3.86157 14.928 3.98209C14.7207 4.1026 14.5149 4.22564 14.3106 4.3512C14.1064 4.4767 13.9037 4.60467 13.7026 4.73511C13.5016 4.86554 13.3021 4.99841 13.1044 5.13372C12.9066 5.26903 12.7106 5.40669 12.5163 5.54671C12.322 5.68679 12.1294 5.82919 11.9386 5.97392C11.7478 6.11865 11.5589 6.26569 11.3718 6.41502C11.1847 6.5643 10.9995 6.71585 10.8162 6.86967C10.6328 7.0235 10.4514 7.17954 10.2719 7.3378C10.0925 7.49601 9.91504 7.65638 9.73959 7.81892C9.5642 7.98151 9.3908 8.14618 9.21941 8.31293C9.04812 8.47969 8.87889 8.64849 8.71171 8.81936C8.54458 8.99022 8.37962 9.16308 8.21683 9.33794C8.05397 9.5128 7.89334 9.68963 7.73492 9.86844C7.5698 10.0547 7.40694 10.2429 7.24637 10.433C7.08579 10.6232 6.92757 10.8152 6.77171 11.0091C6.6158 11.203 6.4623 11.3987 6.31121 11.5963C6.16012 11.7938 6.01144 11.9931 5.86518 12.1941C5.71892 12.3952 5.57515 12.598 5.43388 12.8025C5.29256 13.007 5.15376 13.2132 5.01749 13.421C4.88121 13.6287 4.74749 13.8381 4.61632 14.0491C4.48515 14.26 4.35659 14.4725 4.23064 14.6866C4.10463 14.9006 3.98125 15.1161 3.86052 15.3331C3.73978 15.55 3.6217 15.7684 3.50629 15.9882C3.39088 16.2079 3.27819 16.429 3.16821 16.6514C3.05819 16.8739 2.95087 17.0976 2.84628 17.3226C2.74174 17.5476 2.63996 17.7738 2.54091 18.0013C2.44187 18.2287 2.3456 18.4572 2.25211 18.6869C2.15867 18.9166 2.06803 19.1474 1.9802 19.3793C1.89236 19.6111 1.80735 19.844 1.72518 20.0779C1.64301 20.3118 1.56369 20.5466 1.48723 20.7824C1.41082 21.0181 1.33728 21.2547 1.26659 21.4922C1.1959 21.7298 1.12815 21.9681 1.06334 22.2072C0.998474 22.4463 0.936527 22.6862 0.877491 22.9268C0.818508 23.1674 0.76244 23.4087 0.709282 23.6506C0.656181 23.8925 0.606026 24.135 0.558807 24.3781C0.511585 24.6212 0.467335 24.8649 0.426052 25.1091C0.384827 25.3533 0.346539 25.5979 0.311195 25.843C0.275906 26.088 0.243614 26.3335 0.214317 26.5793C0.184963 26.8252 0.158638 27.0713 0.135334 27.3178C0.11203 27.5643 0.0917206 27.811 0.0744095 28.058C0.0570984 28.3049 0.0428085 28.5521 0.0315437 28.7993C0.0202827 29.0466 0.012043 29.294 0.00682831 29.5415C0.0015564 29.789 -0.000663757 30.0365 0.000167847 30.2841C0.00094223 30.5317 0.00474548 30.7792 0.01157 31.0266C0.0183945 31.274 0.028244 31.5214 0.0411148 31.7686C0.298294 36.2183 1.44203 40.313 3.56513 44.2413C3.80794 44.6952 4.06334 45.1421 4.33134 45.582C4.59934 46.0218 4.87955 46.454 5.17196 46.8785C5.46432 47.3029 5.76844 47.719 6.08432 48.1266C6.40015 48.5344 6.72724 48.9331 7.06559 49.3229C8.22847 50.6362 9.5162 51.7358 10.8291 52.8932C12.4933 52.4447 14.1842 52.1283 15.8605 51.7303C16.7283 51.5243 17.6561 51.3401 18.4702 50.9713C17.7887 51.1182 17.0915 51.2297 16.3926 51.2369C13.5177 51.2665 11.1846 50.1073 9.16156 48.1653C9.21888 48.1933 9.27653 48.2205 9.33451 48.247C11.6917 49.3222 14.7964 49.3876 17.319 48.917C17.7642 48.834 18.2346 48.7496 18.6597 48.5953C16.5455 48.8409 14.3578 48.7327 12.3451 48.0015C9.54259 46.9833 7.92336 45.1354 6.69289 42.5325C8.74334 44.6571 11.2065 45.8477 14.1776 46.1266C15.5577 46.2627 17.1612 46.1425 18.4944 45.7637C17.9627 45.771 17.4318 45.8287 16.8992 45.8352C16.7024 45.8377 16.5057 45.8349 16.309 45.8269C16.1123 45.8189 15.916 45.8056 15.7201 45.7871C15.5241 45.7685 15.3289 45.7448 15.1343 45.7158C14.9396 45.6868 14.7459 45.6527 14.5532 45.6133C14.3604 45.5741 14.1689 45.5296 13.9785 45.4801C13.7882 45.4305 13.5993 45.3759 13.412 45.3162C13.2247 45.2566 13.0391 45.1919 12.8554 45.1224C12.6716 45.0528 12.4898 44.9784 12.3101 44.899C9.67717 43.7568 7.27758 41.1624 6.22798 38.5144C6.67641 38.9652 7.12094 39.4159 7.61699 39.8168C10.2072 41.9103 13.2863 42.808 16.6141 42.4711C13.6308 42.2695 10.8614 40.6398 8.81383 38.5533C5.95815 35.6432 4.63563 31.9628 4.7008 27.9506C5.12768 28.4594 5.59302 28.8104 6.1465 29.1739C5.82839 28.0514 5.75548 27.2412 5.77804 26.0817C6.03114 26.4156 6.28582 26.7391 6.60009 27.0198C7.60043 27.9133 8.87908 28.1933 10.1946 28.1269C9.65028 27.2208 9.3192 25.8267 9.26061 24.7847C9.22116 24.0825 9.26227 23.3474 9.39893 22.6569C9.66011 21.3374 10.54 19.0979 11.4324 18.1196C11.4209 18.192 11.4111 18.2647 11.403 18.3375C11.395 18.4104 11.3886 18.4835 11.384 18.5566C11.3794 18.6298 11.3765 18.703 11.3754 18.7763C11.3742 18.8496 11.3748 18.9229 11.3771 18.9961C11.3795 19.0694 11.3835 19.1426 11.3893 19.2157C11.3951 19.2888 11.4025 19.3617 11.4118 19.4344C11.421 19.5072 11.4319 19.5797 11.4445 19.6519C11.4571 19.7241 11.4715 19.796 11.4875 19.8676C11.5035 19.9392 11.5213 20.0104 11.5407 20.0811C11.56 20.1519 11.5811 20.2222 11.6038 20.292C11.6265 20.3618 11.6509 20.431 11.6769 20.4997C11.7029 20.5683 11.7305 20.6364 11.7597 20.7038C11.7889 20.7712 11.8197 20.8379 11.852 20.9038C11.8844 20.9698 11.9183 21.035 11.9537 21.0995C11.9891 21.1639 12.0261 21.2275 12.0645 21.2902C12.103 21.3529 12.1429 21.4147 12.1842 21.4756C12.1721 19.4028 12.9078 17.0587 13.9468 15.2508C14.339 14.5685 14.8238 13.9231 15.3061 13.3002C15.2191 13.6843 15.1503 14.0574 15.1667 14.4527C15.2197 15.7261 15.8983 16.7466 16.8118 17.5887C16.5887 13.6096 17.4295 11.989 19.6998 8.87351C19.4986 9.99531 19.4947 10.9387 19.7205 12.0577C20.114 10.0336 21.2069 8.22731 22.3991 6.56621C22.8026 6.00391 23.2499 5.46421 23.6187 4.87932C23.3813 6.03645 23.3668 7.11742 23.9859 8.14974C24.0286 7.63387 24.1548 7.16574 24.4039 6.70878C24.8575 5.87647 25.5687 5.17423 26.1872 4.45934C27.093 3.41256 28.6629 1.29105 28.9648 0.00170152Z" fill="url(#paint1_linear_48_95)"/>
<path d="M84.639 24.943V27H76.258V14.93H84.486V16.987H78.604V19.894H83.687V21.798H78.604V24.943H84.639ZM85.5211 20.88C85.5211 20.1433 85.6515 19.4237 85.9121 18.721C86.1841 18.007 86.5751 17.361 87.0851 16.783C87.5951 16.1937 88.2185 15.729 88.9551 15.389C89.6918 15.0377 90.5305 14.862 91.4711 14.862C92.5818 14.862 93.5395 15.1057 94.3441 15.593C95.1601 16.0803 95.7665 16.715 96.1631 17.497L94.3611 18.738C94.1571 18.2847 93.8908 17.9277 93.5621 17.667C93.2335 17.395 92.8821 17.208 92.5081 17.106C92.1341 16.9927 91.7658 16.936 91.4031 16.936C90.8138 16.936 90.2981 17.055 89.8561 17.293C89.4255 17.531 89.0628 17.8427 88.7681 18.228C88.4735 18.6133 88.2525 19.044 88.1051 19.52C87.9691 19.996 87.9011 20.472 87.9011 20.948C87.9011 21.4807 87.9861 21.9963 88.1561 22.495C88.3261 22.9823 88.5641 23.4187 88.8701 23.804C89.1875 24.178 89.5615 24.4783 89.9921 24.705C90.4341 24.9203 90.9158 25.028 91.4371 25.028C91.8111 25.028 92.1908 24.9657 92.5761 24.841C92.9615 24.7163 93.3185 24.518 93.6471 24.246C93.9758 23.974 94.2308 23.6227 94.4121 23.192L96.3331 24.297C96.0951 24.8977 95.7041 25.4077 95.1601 25.827C94.6275 26.2463 94.0268 26.5637 93.3581 26.779C92.6895 26.9943 92.0265 27.102 91.3691 27.102C90.5078 27.102 89.7201 26.9263 89.0061 26.575C88.2921 26.2123 87.6745 25.7363 87.1531 25.147C86.6431 24.5463 86.2408 23.8777 85.9461 23.141C85.6628 22.393 85.5211 21.6393 85.5211 20.88ZM102.908 27.085C102.024 27.085 101.219 26.915 100.494 26.575C99.78 26.235 99.1624 25.776 98.641 25.198C98.131 24.6087 97.7344 23.9513 97.451 23.226C97.1677 22.4893 97.026 21.7357 97.026 20.965C97.026 20.1603 97.1734 19.3953 97.468 18.67C97.774 17.9333 98.1877 17.2817 98.709 16.715C99.2417 16.137 99.865 15.6837 100.579 15.355C101.304 15.015 102.098 14.845 102.959 14.845C103.832 14.845 104.625 15.0207 105.339 15.372C106.064 15.7233 106.682 16.1937 107.192 16.783C107.702 17.3723 108.099 18.0297 108.382 18.755C108.665 19.4803 108.807 20.2283 108.807 20.999C108.807 21.7923 108.66 22.5573 108.365 23.294C108.07 24.0193 107.657 24.671 107.124 25.249C106.603 25.8157 105.979 26.2633 105.254 26.592C104.54 26.9207 103.758 27.085 102.908 27.085ZM99.406 20.965C99.406 21.4863 99.4854 21.9907 99.644 22.478C99.8027 22.9653 100.029 23.4017 100.324 23.787C100.63 24.161 100.998 24.4613 101.429 24.688C101.871 24.9033 102.37 25.011 102.925 25.011C103.492 25.011 103.996 24.8977 104.438 24.671C104.88 24.433 105.248 24.1213 105.543 23.736C105.838 23.3393 106.059 22.903 106.206 22.427C106.365 21.9397 106.444 21.4523 106.444 20.965C106.444 20.4437 106.359 19.945 106.189 19.469C106.03 18.9817 105.798 18.551 105.492 18.177C105.197 17.7917 104.829 17.4913 104.387 17.276C103.956 17.0493 103.469 16.936 102.925 16.936C102.347 16.936 101.837 17.055 101.395 17.293C100.964 17.5197 100.602 17.8257 100.307 18.211C100.012 18.5963 99.7857 19.027 99.627 19.503C99.4797 19.979 99.406 20.4663 99.406 20.965Z" fill="#70AE41"/>
<path d="M85.285 35.987H81.426V46H79.097V35.987H75.238V33.93H85.285V35.987ZM91.6522 46.085C90.7682 46.085 89.9635 45.915 89.2382 45.575C88.5242 45.235 87.9065 44.776 87.3852 44.198C86.8752 43.6087 86.4785 42.9513 86.1952 42.226C85.9118 41.4893 85.7702 40.7357 85.7702 39.965C85.7702 39.1603 85.9175 38.3953 86.2122 37.67C86.5182 36.9333 86.9318 36.2817 87.4532 35.715C87.9858 35.137 88.6092 34.6837 89.3232 34.355C90.0485 34.015 90.8418 33.845 91.7032 33.845C92.5758 33.845 93.3692 34.0207 94.0832 34.372C94.8085 34.7233 95.4262 35.1937 95.9362 35.783C96.4462 36.3723 96.8428 37.0297 97.1262 37.755C97.4095 38.4803 97.5512 39.2283 97.5512 39.999C97.5512 40.7923 97.4038 41.5573 97.1092 42.294C96.8145 43.0193 96.4008 43.671 95.8682 44.249C95.3468 44.8157 94.7235 45.2633 93.9982 45.592C93.2842 45.9207 92.5022 46.085 91.6522 46.085ZM88.1502 39.965C88.1502 40.4863 88.2295 40.9907 88.3882 41.478C88.5468 41.9653 88.7735 42.4017 89.0682 42.787C89.3742 43.161 89.7425 43.4613 90.1732 43.688C90.6152 43.9033 91.1138 44.011 91.6692 44.011C92.2358 44.011 92.7402 43.8977 93.1822 43.671C93.6242 43.433 93.9925 43.1213 94.2872 42.736C94.5818 42.3393 94.8028 41.903 94.9502 41.427C95.1088 40.9397 95.1882 40.4523 95.1882 39.965C95.1882 39.4437 95.1032 38.945 94.9332 38.469C94.7745 37.9817 94.5422 37.551 94.2362 37.177C93.9415 36.7917 93.5732 36.4913 93.1312 36.276C92.7005 36.0493 92.2132 35.936 91.6692 35.936C91.0912 35.936 90.5812 36.055 90.1392 36.293C89.7085 36.5197 89.3458 36.8257 89.0512 37.211C88.7565 37.5963 88.5298 38.027 88.3712 38.503C88.2238 38.979 88.1502 39.4663 88.1502 39.965ZM99.3508 46V33.93H101.697V43.943H107.851V46H99.3508ZM117.66 43.943V46H109.279V33.93H117.507V35.987H111.625V38.894H116.708V40.798H111.625V43.943H117.66ZM126.679 37.092C126.6 37.0127 126.453 36.905 126.237 36.769C126.033 36.633 125.778 36.5027 125.472 36.378C125.178 36.2533 124.855 36.1457 124.503 36.055C124.152 35.953 123.795 35.902 123.432 35.902C122.798 35.902 122.316 36.021 121.987 36.259C121.67 36.497 121.511 36.8313 121.511 37.262C121.511 37.5907 121.613 37.8513 121.817 38.044C122.021 38.2367 122.327 38.401 122.735 38.537C123.143 38.673 123.653 38.8203 124.265 38.979C125.059 39.1717 125.744 39.4097 126.322 39.693C126.912 39.965 127.359 40.3277 127.665 40.781C127.983 41.223 128.141 41.8123 128.141 42.549C128.141 43.195 128.022 43.7503 127.784 44.215C127.546 44.6683 127.218 45.0367 126.798 45.32C126.379 45.6033 125.903 45.813 125.37 45.949C124.838 46.0737 124.271 46.136 123.67 46.136C123.07 46.136 122.469 46.0737 121.868 45.949C121.268 45.8243 120.69 45.6487 120.134 45.422C119.579 45.184 119.069 44.9007 118.604 44.572L119.641 42.549C119.743 42.651 119.925 42.787 120.185 42.957C120.446 43.1157 120.763 43.28 121.137 43.45C121.511 43.6087 121.919 43.7447 122.361 43.858C122.803 43.9713 123.251 44.028 123.704 44.028C124.339 44.028 124.821 43.9203 125.149 43.705C125.478 43.4897 125.642 43.1837 125.642 42.787C125.642 42.4243 125.512 42.141 125.251 41.937C124.991 41.733 124.628 41.5573 124.163 41.41C123.699 41.2513 123.149 41.0813 122.514 40.9C121.755 40.6847 121.12 40.4467 120.61 40.186C120.1 39.914 119.721 39.574 119.471 39.166C119.222 38.758 119.097 38.248 119.097 37.636C119.097 36.8087 119.29 36.1173 119.675 35.562C120.072 34.9953 120.605 34.5703 121.273 34.287C121.942 33.9923 122.684 33.845 123.5 33.845C124.067 33.845 124.6 33.9073 125.098 34.032C125.608 34.1567 126.084 34.321 126.526 34.525C126.968 34.729 127.365 34.95 127.716 35.188L126.679 37.092ZM129.914 46V33.93H138.023V35.987H132.26V39.098H137.054V41.002H132.26V46H129.914ZM144.644 46.085C143.76 46.085 142.956 45.915 142.23 45.575C141.516 45.235 140.899 44.776 140.377 44.198C139.867 43.6087 139.471 42.9513 139.187 42.226C138.904 41.4893 138.762 40.7357 138.762 39.965C138.762 39.1603 138.91 38.3953 139.204 37.67C139.51 36.9333 139.924 36.2817 140.445 35.715C140.978 35.137 141.601 34.6837 142.315 34.355C143.041 34.015 143.834 33.845 144.695 33.845C145.568 33.845 146.361 34.0207 147.075 34.372C147.801 34.7233 148.418 35.1937 148.928 35.783C149.438 36.3723 149.835 37.0297 150.118 37.755C150.402 38.4803 150.543 39.2283 150.543 39.999C150.543 40.7923 150.396 41.5573 150.101 42.294C149.807 43.0193 149.393 43.671 148.86 44.249C148.339 44.8157 147.716 45.2633 146.99 45.592C146.276 45.9207 145.494 46.085 144.644 46.085ZM141.142 39.965C141.142 40.4863 141.222 40.9907 141.38 41.478C141.539 41.9653 141.766 42.4017 142.06 42.787C142.366 43.161 142.735 43.4613 143.165 43.688C143.607 43.9033 144.106 44.011 144.661 44.011C145.228 44.011 145.732 43.8977 146.174 43.671C146.616 43.433 146.985 43.1213 147.279 42.736C147.574 42.3393 147.795 41.903 147.942 41.427C148.101 40.9397 148.18 40.4523 148.18 39.965C148.18 39.4437 148.095 38.945 147.925 38.469C147.767 37.9817 147.534 37.551 147.228 37.177C146.934 36.7917 146.565 36.4913 146.123 36.276C145.693 36.0493 145.205 35.936 144.661 35.936C144.083 35.936 143.573 36.055 143.131 36.293C142.701 36.5197 142.338 36.8257 142.043 37.211C141.749 37.5963 141.522 38.027 141.363 38.503C141.216 38.979 141.142 39.4663 141.142 39.965ZM152.343 46V33.93H157.681C158.236 33.93 158.746 34.0433 159.211 34.27C159.687 34.4967 160.095 34.8027 160.435 35.188C160.786 35.5733 161.053 36.004 161.234 36.48C161.427 36.956 161.523 37.4433 161.523 37.942C161.523 38.452 161.432 38.945 161.251 39.421C161.081 39.8857 160.832 40.2937 160.503 40.645C160.174 40.9963 159.789 41.2683 159.347 41.461L162.101 46H159.517L157.035 41.954H154.689V46H152.343ZM154.689 39.897H157.63C157.925 39.897 158.185 39.812 158.412 39.642C158.639 39.4607 158.82 39.2227 158.956 38.928C159.092 38.6333 159.16 38.3047 159.16 37.942C159.16 37.5567 159.081 37.2223 158.922 36.939C158.763 36.6443 158.559 36.412 158.31 36.242C158.072 36.072 157.811 35.987 157.528 35.987H154.689V39.897Z" fill="#F5B548"/>
<defs>
<linearGradient id="paint0_linear_48_95" x1="59.2864" y1="46.4398" x2="31.056" y2="-14.3563" gradientUnits="userSpaceOnUse">
<stop stop-color="#367F37"/>
<stop offset="1" stop-color="#88C248"/>
</linearGradient>
<linearGradient id="paint1_linear_48_95" x1="30.4088" y1="42.3008" x2="7.48956" y2="9.10403" gradientUnits="userSpaceOnUse">
<stop stop-color="#469B38"/>
<stop offset="1" stop-color="#89BA47"/>
</linearGradient>
</defs>
</svg>
